<svg version="1.1" xmlns="http://www.w3.org/2000/svg" xmlns:xlink="http://www.w3.org/1999/xlink" width="128.47404" height="230.95218" viewBox="0,0,128.47404,230.95218"><defs><linearGradient x1="320.00004" y1="160.50001" x2="320.00004" y2="292.50001" gradientUnits="userSpaceOnUse" id="color-1"><stop offset="0" stop-color="#3e3e3e"/><stop offset="1" stop-color="#141214"/></linearGradient><linearGradient x1="320.41031" y1="61.54783" x2="320.41031" y2="182.14449" gradientUnits="userSpaceOnUse" id="color-2"><stop offset="0" stop-color="#3e3e3e"/><stop offset="1" stop-color="#141214"/></linearGradient><linearGradient x1="344.0638" y1="175.44814" x2="344.0638" y2="189.94653" gradientUnits="userSpaceOnUse" id="color-3"><stop offset="0" stop-color="#3a3a3a"/><stop offset="1" stop-color="#353435"/></linearGradient><linearGradient x1="296.96878" y1="175.44813" x2="296.96878" y2="189.94653" gradientUnits="userSpaceOnUse" id="color-4"><stop offset="0" stop-color="#3a3a3a"/><stop offset="1" stop-color="#353435"/></linearGradient></defs><g transform="translate(-256.17329,-61.54783)"><g data-paper-data="{&quot;isPaintingLayer&quot;:true}" fill-rule="nonzero" stroke-linejoin="miter" stroke-miterlimit="10" stroke-dasharray="" stroke-dashoffset="0" style="mix-blend-mode: normal"><path d="M286.75005,292.5l15.14285,-131.8421l37.78325,-0.15789l13.57389,132z" fill="url(#color-1)" stroke="#000000" stroke-width="0" stroke-linecap="butt"/><text transform="translate(300.19205,223.1149) scale(0.9904,0.9904)" font-size="40" xml:space="preserve" fill="#141214" fill-rule="nonzero" stroke="none" stroke-width="1" stroke-linecap="butt" stroke-linejoin="miter" stroke-miterlimit="10" stroke-dasharray="" stroke-dashoffset="0" font-family="Serif" font-weight="normal" text-anchor="start" style="mix-blend-mode: normal"><tspan x="0" dy="0">#3</tspan></text><path d="M256.17329,121.84616c0,-33.30185 28.7599,-60.29833 64.23702,-60.29833c35.47712,0 64.23702,26.99649 64.23702,60.29833c0,33.30185 -28.7599,60.29833 -64.23702,60.29833c-35.47712,0 -64.23702,-26.99649 -64.23702,-60.29833z" fill="url(#color-2)" stroke="#000000" stroke-width="0" stroke-linecap="butt"/><path d="M269.39306,122.64423c-0.20357,-12.9664 10.14276,-23.64278 23.10916,-23.84635c12.9664,-0.20357 23.64278,10.14276 23.84635,23.10916c0.20357,12.9664 -10.14276,23.64278 -23.10916,23.84635c-12.9664,0.20357 -23.64278,-10.14276 -23.84635,-23.10916z" fill="#5a5a5a" stroke="#000000" stroke-width="0" stroke-linecap="butt"/><path d="M276.45555,122c0,-9.12808 7.39976,-16.52784 16.52783,-16.52784c9.12808,0 16.52784,7.39977 16.52784,16.52784c0,9.12808 -7.39977,16.52784 -16.52784,16.52784c-9.12808,0 -16.52783,-7.39977 -16.52783,-16.52784z" fill="#000000" stroke="#000000" stroke-width="0" stroke-linecap="butt"/><path d="M347.12926,145.75627c-12.968,0 -23.48065,-10.51265 -23.48065,-23.48065c0,-12.968 10.51265,-23.48065 23.48065,-23.48065c12.968,0 23.48065,10.51265 23.48065,23.48065c0,12.968 -10.51265,23.48065 -23.48065,23.48065z" data-paper-data="{&quot;index&quot;:null}" fill="#5a5a5a" stroke="#000000" stroke-width="0" stroke-linecap="butt"/><path d="M347.01669,138.52784c-9.12807,0 -16.52783,-7.39977 -16.52783,-16.52784c0,-9.12808 7.39977,-16.52784 16.52783,-16.52784c9.12807,0 16.52783,7.39977 16.52783,16.52784c0,9.12808 -7.39977,16.52784 -16.52783,16.52784z" data-paper-data="{&quot;index&quot;:null}" fill="#000000" stroke="#000000" stroke-width="0" stroke-linecap="butt"/><path d="M292.50222,98.79787c11.67992,-0.18337 21.50169,8.19356 23.48447,19.33484c-15.20698,0.09691 -30.69389,0.29008 -46.32174,0.5365c1.71234,-11.1055 11.22391,-19.68901 22.83727,-19.87134z" fill="#2e2d2e" stroke="#000000" stroke-width="0" stroke-linecap="butt"/><path d="M347.06748,145.75628c-6.68269,0 -12.71334,-2.7917 -16.98935,-7.27248c11.31513,0.00467 22.63025,0.0154 33.94537,0.03486c-4.27398,4.4604 -10.29067,7.23763 -16.95602,7.23763z" fill="#2e2d2e" stroke="#000000" stroke-width="0" stroke-linecap="butt"/><path d="M347.12926,98.79497c12.57667,0 22.84394,9.88775 23.45215,22.31358c-0.38006,-0.02132 -0.73561,-0.04451 -1.06071,-0.07033c-15.16849,-1.20469 -30.36765,-2.27342 -45.58269,-2.4597c1.7732,-11.21148 11.48117,-19.78355 23.19125,-19.78355z" data-paper-data="{&quot;index&quot;:null}" fill="#2e2d2e" stroke="#000000" stroke-width="0" stroke-linecap="butt"/><path d="M334.22913,180.66362l10.75581,-5.21548c0,0 1.15991,1.67692 1.05614,3.66604c-0.10377,1.9891 -1.37772,3.9877 -1.37772,3.9877l3.0949,5.32941c0,0 -2.85591,2.11847 -6.25887,1.3456" fill="url(#color-3)" stroke="#000000" stroke-width="0" stroke-linecap="round"/><path d="M299.53317,189.77687c-3.40296,0.77288 -6.25885,-1.34559 -6.25885,-1.34559l3.0949,-5.3294c0,0 -1.27395,-1.99859 -1.37772,-3.9877c-0.10377,-1.98911 1.05615,-3.66604 1.05615,-3.66604l10.902,5.36168" data-paper-data="{&quot;index&quot;:null}" fill="url(#color-4)" stroke="#000000" stroke-width="0" stroke-linecap="round"/></g></g></svg>