<svg version="1.1" xmlns="http://www.w3.org/2000/svg" xmlns:xlink="http://www.w3.org/1999/xlink" width="1633.2768" height="276.8404" viewBox="0,0,1633.2768,276.8404"><defs><linearGradient x1="78.01512" y1="141.26028" x2="78.01512" y2="238.54803" gradientUnits="userSpaceOnUse" id="color-1"><stop offset="0" stop-color="#251c1c"/><stop offset="1" stop-color="#000000"/></linearGradient><linearGradient x1="238.98216" y1="173.98434" x2="238.98216" y2="271.27209" gradientUnits="userSpaceOnUse" id="color-2"><stop offset="0" stop-color="#251c1c"/><stop offset="1" stop-color="#000000"/></linearGradient><linearGradient x1="395.527" y1="173.98434" x2="395.527" y2="271.27209" gradientUnits="userSpaceOnUse" id="color-3"><stop offset="0" stop-color="#251c1c"/><stop offset="1" stop-color="#000000"/></linearGradient><linearGradient x1="561.98491" y1="141.26028" x2="561.98491" y2="238.54803" gradientUnits="userSpaceOnUse" id="color-4"><stop offset="0" stop-color="#251c1c"/><stop offset="1" stop-color="#000000"/></linearGradient><linearGradient x1="313.2143" y1="180.62126" x2="313.2143" y2="212.04983" gradientUnits="userSpaceOnUse" id="color-5"><stop offset="0" stop-color="#000000" stop-opacity="0"/><stop offset="1" stop-color="#000000"/></linearGradient><linearGradient x1="320.00001" y1="194.68963" x2="320.00001" y2="369.45681" gradientUnits="userSpaceOnUse" id="color-6"><stop offset="0" stop-color="#0a0808"/><stop offset="1" stop-color="#000000"/></linearGradient></defs><g transform="translate(496.6384,-92.61641)"><g data-paper-data="{&quot;isPaintingLayer&quot;:true}" fill-rule="nonzero" stroke="none" stroke-width="0" stroke-linecap="butt" stroke-linejoin="miter" stroke-miterlimit="10" stroke-dasharray="" stroke-dashoffset="0" style="mix-blend-mode: normal"><path d="M179.1907,189.90416c0,26.86527 -45.29784,48.64388 -101.17556,48.64388c-55.87772,0 -101.17556,-21.77861 -101.17556,-48.64388c0,-26.86527 26.51193,-97.28775 82.38964,-97.28775c55.87772,0 119.96147,70.42248 119.96147,97.28775z" fill="url(#color-1)"/><path d="M340.15772,222.62822c0,26.86527 -45.29784,48.64388 -101.17556,48.64388c-55.87772,0 -101.17556,-21.77861 -101.17556,-48.64388c0,-26.86527 26.51193,-97.28775 82.38964,-97.28775c55.87772,0 119.96147,70.42248 119.96147,97.28775z" fill="url(#color-2)"/><path d="M414.31291,125.34047c55.87772,0 82.38964,70.42248 82.38964,97.28775c0,26.86527 -45.29784,48.64388 -101.17556,48.64388c-55.87772,0 -101.17556,-21.77861 -101.17556,-48.64388c0,-26.86527 64.08375,-97.28775 119.96147,-97.28775z" fill="url(#color-3)"/><path d="M580.77082,92.61641c55.87772,0 82.38964,70.42248 82.38964,97.28775c0,26.86527 -45.29784,48.64388 -101.17556,48.64388c-55.87772,0 -101.17556,-21.77861 -101.17556,-48.64388c0,-26.86527 64.08375,-97.28775 119.96147,-97.28775z" fill="url(#color-4)"/><path d="M-23.57142,212.04983v-31.42857h673.57143v31.42857z" fill="url(#color-5)"/><path d="M1136.63841,282.07322c0,48.26063 -365.62147,87.38359 -816.6384,87.38359c-451.01694,0 -816.6384,-39.12297 -816.6384,-87.38359c0,-48.26063 365.62147,-87.38359 816.6384,-87.38359c451.01694,0 816.6384,39.12297 816.6384,87.38359z" fill="url(#color-6)"/></g></g></svg>