<svg version="1.1" xmlns="http://www.w3.org/2000/svg" xmlns:xlink="http://www.w3.org/1999/xlink" width="357.81096" height="623.07625" viewBox="0,0,357.81096,623.07625"><defs><linearGradient x1="353.4858" y1="-61.9928" x2="353.4858" y2="129.2926" gradientUnits="userSpaceOnUse" id="color-1"><stop offset="0" stop-color="#a18989"/><stop offset="1" stop-color="#2e1e1e"/></linearGradient><linearGradient x1="353.4858" y1="-61.9928" x2="353.4858" y2="129.2926" gradientUnits="userSpaceOnUse" id="color-2"><stop offset="0" stop-color="#a18989"/><stop offset="1" stop-color="#2e1e1e"/></linearGradient><linearGradient x1="274.25314" y1="-66.56141" x2="274.25314" y2="131.37131" gradientUnits="userSpaceOnUse" id="color-3"><stop offset="0" stop-color="#a18989"/><stop offset="1" stop-color="#2e1e1e"/></linearGradient><linearGradient x1="274.25314" y1="-66.56141" x2="274.25314" y2="131.37131" gradientUnits="userSpaceOnUse" id="color-4"><stop offset="0" stop-color="#a18989"/><stop offset="1" stop-color="#2e1e1e"/></linearGradient><radialGradient cx="286.36197" cy="-0.21879" r="24.36829" gradientUnits="userSpaceOnUse" id="color-5"><stop offset="0" stop-color="#ffffff"/><stop offset="1" stop-color="#996666"/></radialGradient><radialGradient cx="339.46659" cy="2.63268" r="24.36829" gradientUnits="userSpaceOnUse" id="color-6"><stop offset="0" stop-color="#ffffff"/><stop offset="1" stop-color="#996666"/></radialGradient><linearGradient x1="313.49589" y1="-74.1253" x2="313.49589" y2="-51.87169" gradientUnits="userSpaceOnUse" id="color-7"><stop offset="0" stop-color="#a18989"/><stop offset="1" stop-color="#2e1e1e"/></linearGradient><linearGradient x1="313.49589" y1="-74.1253" x2="313.49589" y2="-51.87169" gradientUnits="userSpaceOnUse" id="color-8"><stop offset="0" stop-color="#a18989"/><stop offset="1" stop-color="#2e1e1e"/></linearGradient><linearGradient x1="269.2505" y1="2.93747" x2="269.2505" y2="32.87523" gradientUnits="userSpaceOnUse" id="color-9"><stop offset="0" stop-color="#796464"/><stop offset="1" stop-color="#665252"/></linearGradient><linearGradient x1="269.2505" y1="2.93747" x2="269.2505" y2="32.87523" gradientUnits="userSpaceOnUse" id="color-10"><stop offset="0" stop-color="#796464"/><stop offset="1" stop-color="#665252"/></linearGradient><linearGradient x1="358.91716" y1="3.60412" x2="358.91716" y2="33.54189" gradientUnits="userSpaceOnUse" id="color-11"><stop offset="0" stop-color="#796464"/><stop offset="1" stop-color="#665252"/></linearGradient><linearGradient x1="358.91716" y1="3.60412" x2="358.91716" y2="33.54189" gradientUnits="userSpaceOnUse" id="color-12"><stop offset="0" stop-color="#796464"/><stop offset="1" stop-color="#665252"/></linearGradient><linearGradient x1="290.26422" y1="-66.5646" x2="290.26422" y2="3.43941" gradientUnits="userSpaceOnUse" id="color-13"><stop offset="0" stop-color="#a18989"/><stop offset="1" stop-color="#2e1e1e"/></linearGradient><linearGradient x1="290.26422" y1="-66.5646" x2="290.26422" y2="3.43941" gradientUnits="userSpaceOnUse" id="color-14"><stop offset="0" stop-color="#a18989"/><stop offset="1" stop-color="#2e1e1e"/></linearGradient><linearGradient x1="276.92332" y1="-41.38678" x2="276.92332" y2="9.20636" gradientUnits="userSpaceOnUse" id="color-15"><stop offset="0" stop-color="#000000"/><stop offset="1" stop-color="#2e1e1e"/></linearGradient><linearGradient x1="276.92332" y1="-41.38678" x2="276.92332" y2="9.20636" gradientUnits="userSpaceOnUse" id="color-16"><stop offset="0" stop-color="#000000"/><stop offset="1" stop-color="#2e1e1e"/></linearGradient><linearGradient x1="412.38716" y1="365.22283" x2="464.62166" y2="354.61929" gradientUnits="userSpaceOnUse" id="color-17"><stop offset="0" stop-color="#443939"/><stop offset="1" stop-color="#1a0d0d"/></linearGradient><linearGradient x1="219.63398" y1="366.72433" x2="167.39948" y2="356.12079" gradientUnits="userSpaceOnUse" id="color-18"><stop offset="0" stop-color="#443939"/><stop offset="1" stop-color="#1a0d0d"/></linearGradient><linearGradient x1="315.1293" y1="60.68301" x2="315.1293" y2="118.86431" gradientUnits="userSpaceOnUse" id="color-19"><stop offset="0" stop-color="#a18989"/><stop offset="1" stop-color="#2e1e1e"/></linearGradient><linearGradient x1="315.8105" y1="202.27014" x2="315.8105" y2="218.83061" gradientUnits="userSpaceOnUse" id="color-20"><stop offset="0" stop-color="#443939"/><stop offset="1" stop-color="#281b1b"/></linearGradient><linearGradient x1="314.78882" y1="46.09538" x2="314.78882" y2="77.56825" gradientUnits="userSpaceOnUse" id="color-21"><stop offset="0" stop-color="#a18989"/><stop offset="1" stop-color="#2e1e1e"/></linearGradient></defs><g transform="translate(-106.96212,141.13632)"><g stroke-miterlimit="10"><path d="M292.47158,-39.11335c0,0 68.14317,-43.46938 91.92555,-10.5735c27.78226,38.4285 13.41024,86.95818 13.41024,86.95818c0,0 17.01733,14.05353 16.68794,15.6261c-0.75619,3.61031 -1.67735,7.03201 -2.71533,10.26064c-0.67334,2.09443 -1.86869,7.72778 -2.14187,12.6325c-0.31662,5.68449 0.17025,8.48172 -2.77485,9.32612c-4.49208,1.28796 -2.03282,-5.44556 -3.07182,-3.5852c-7.23467,12.95422 -14.81886,19.80316 -14.81886,19.80316c0,0 7.63594,3.29326 6.63208,4.24468c-4.11782,3.90272 -10.80594,7.07434 -14.9843,9.62105c-1.87622,1.14355 1.12189,13.76322 -5.37337,14.08673c-5.46308,0.2721 -3.22156,-9.66888 -4.69979,-9.09602c-34.65475,13.42982 -66.7867,-10.70119 -66.7867,-10.70119" fill="url(#color-1)" stroke="url(#color-2)" stroke-width="2" stroke-linecap="round"/><path d="M324.40102,104.92131c0,0 -30.57946,22.96509 -64.24901,11.62002c-0.69015,-0.23256 0.76039,14.56567 -3.68488,14.82331c-6.62167,0.3838 -1.86219,-15.93275 -4.86591,-15.63836c-2.12127,0.20791 -0.70114,5.19131 -4.72778,5.01559c-3.58167,-0.15633 -1.75032,-11.51525 -5.02107,-13.97931c-2.27139,-1.71118 -6.33059,-2.70409 -8.57707,-4.83324c-1.00385,-0.95142 5.49098,-6.24413 5.49098,-6.24413c0,0 -5.85957,-4.68616 -12.22568,-14.10867c-2.05378,-3.03982 0.57957,5.02443 -4.20517,3.72203c-3.20049,-0.8712 -2.54379,-4.18624 -2.95197,-10.4205c-0.31972,-4.88334 -1.47147,-9.40315 -1.87351,-10.41242c-1.86077,-4.67124 -3.48951,-9.86944 -4.68907,-15.59644c-0.32938,-1.57256 17.53323,-14.00484 17.53323,-14.00484c0,0 -14.74842,-38.56855 1.83799,-73.92512c2.42887,-5.1775 12.86884,-10.28614 16.41754,-15.19469c23.78238,-32.89586 87.08026,10.5735 87.08026,10.5735" fill="url(#color-3)" stroke="url(#color-4)" stroke-width="2" stroke-linecap="round"/><path d="M371.26426,-13.5653c0,13.03763 -4.73446,24.8275 -12.62327,33.47159c-5.55609,6.08804 -12.67686,10.72394 -20.81027,13.74172c-0.57456,0.21318 -0.932,-0.68448 -0.96995,1.53575c-0.02408,1.40826 -0.02678,3.4882 -0.07939,5.41143c-0.07097,2.59401 -0.39658,4.90292 -2.53324,4.89408c-2.8578,-0.01183 -2.49206,-5.8037 -2.72011,-8.6845c-0.13133,-1.659 -0.9921,-0.94777 -1.40205,-0.85278c-5.10541,1.18301 -10.50163,1.79129 -16.07708,1.79129c-8.01768,0 -15.63225,-1.18093 -22.52847,-3.52542c-1.52979,-0.52008 -0.10132,4.40018 -3.27989,4.26817c-2.22944,-0.09259 -2.60961,-2.18186 -2.81934,-4.06267c-0.16419,-1.47246 -0.30134,-2.81716 -0.62509,-2.976c-4.61633,-2.26482 -8.80025,-5.1366 -12.43209,-8.60877c-9.34149,-8.93081 -15.0305,-21.97148 -15.0305,-36.40389c0,-30.40801 25.50427,-55.05857 56.96537,-55.05857c31.4611,0 56.96537,24.65056 56.96537,55.05858z" fill="#000000" stroke="#000000" stroke-width="2" stroke-linecap="butt"/><g stroke="none" stroke-linecap="butt"><path d="M328.69803,11.27181c0,1.95753 -7.04253,2.0222 -15.85138,2.0222c-8.80885,0 -16.04829,-0.06468 -16.04829,-2.0222c0,-1.95753 7.14098,-4.0444 15.94982,-4.0444c8.80885,0 15.94983,2.08688 15.94983,4.0444z" fill-opacity="0.36471" fill="#262626" stroke-width="0"/><g fill="#000000" stroke-width="0.5"><path d="M306.30014,11.77661c0,-0.17315 0.14036,-0.31351 0.31351,-0.31351c0.17315,0 0.31351,0.14036 0.31351,0.31351c0,0.17315 -0.14036,0.31352 -0.31351,0.31352c-0.17315,0 -0.31351,-0.14037 -0.31351,-0.31352z"/><path d="M312.51646,8.50485c0,-0.17315 0.14036,-0.31351 0.31351,-0.31351c0.17315,0 0.31351,0.14036 0.31351,0.31351c0,0.17315 -0.14036,0.31351 -0.31351,0.31351c-0.17315,0 -0.31351,-0.14036 -0.31351,-0.31351z"/><path d="M318.5692,12.02199c0,-0.17315 0.14036,-0.31351 0.31351,-0.31351c0.17315,0 0.31351,0.14036 0.31351,0.31351c0,0.17315 -0.14036,0.31352 -0.31351,0.31352c-0.17315,0 -0.31351,-0.14037 -0.31351,-0.31352z"/></g></g><g stroke="none" stroke-linecap="butt"><path d="M283.40537,17.51945c-0.53685,2.95266 -5.06832,4.60149 -10.12133,3.68277c-5.05301,-0.91872 -8.71409,-4.05712 -8.17723,-7.00978c0.53685,-2.95266 5.06833,-4.60148 10.12133,-3.68276c5.05301,0.91872 8.71408,4.05711 8.17723,7.00978z" fill-opacity="0.36471" fill="#262626" stroke-width="0"/><g fill="#000000" stroke-width="0.5"><path d="M268.44873,13.05495c0,-0.23717 0.19227,-0.42945 0.42945,-0.42945c0.23717,0 0.42945,0.19227 0.42945,0.42945c0,0.23717 -0.19227,0.42945 -0.42945,0.42945c-0.23717,0 -0.42945,-0.19228 -0.42945,-0.42945z"/><path d="M270.80153,18.65694c0,-0.23717 0.19227,-0.42945 0.42945,-0.42945c0.23717,0 0.42945,0.19228 0.42945,0.42945c0,0.23717 -0.19227,0.42945 -0.42945,0.42945c-0.23717,0 -0.42945,-0.19227 -0.42945,-0.42945z"/><path d="M274.16274,14.84758c0,-0.23717 0.19227,-0.42945 0.42945,-0.42945c0.23717,0 0.42945,0.19227 0.42945,0.42945c0,0.23717 -0.19227,0.42945 -0.42945,0.42945c-0.23717,0 -0.42945,-0.19227 -0.42945,-0.42945z"/></g></g><g stroke="none" stroke-linecap="butt"><path d="M352.27194,10.50966c5.05301,-0.91872 9.58449,0.7301 10.12133,3.68276c0.53685,2.95266 -3.12423,6.09105 -8.17723,7.00978c-5.05301,0.91872 -9.58449,-0.73011 -10.12133,-3.68277c-0.53685,-2.95266 3.12423,-6.09104 8.17723,-7.00978z" fill-opacity="0.36471" fill="#262626" stroke-width="0"/><g fill="#000000" stroke-width="0.5"><path d="M358.62188,13.4844c-0.23717,0 -0.42945,-0.19228 -0.42945,-0.42945c0,-0.23717 0.19227,-0.42945 0.42945,-0.42945c0.23717,0 0.42945,0.19227 0.42945,0.42945c0,0.23717 -0.19227,0.42945 -0.42945,0.42945z"/><path d="M356.26905,19.08638c-0.23717,0 -0.42945,-0.19227 -0.42945,-0.42945c0,-0.23717 0.19227,-0.42945 0.42945,-0.42945c0.23717,0 0.42945,0.19228 0.42945,0.42945c0,0.23717 -0.19227,0.42945 -0.42945,0.42945z"/><path d="M352.90787,15.27703c-0.23717,0 -0.42944,-0.19227 -0.42944,-0.42945c0,-0.23717 0.19227,-0.42945 0.42944,-0.42945c0.23717,0 0.42945,0.19227 0.42945,0.42945c0,0.23717 -0.19227,0.42945 -0.42945,0.42945z"/></g></g><g stroke="none" stroke-linecap="butt"><path d="M262.07479,0.34192c0.58391,-9.77004 11.93105,-17.94128 25.34449,-18.25097c13.41347,-0.30969 23.81383,7.35944 23.22992,17.12947c-0.58391,9.77004 -11.93105,17.94127 -25.34449,18.25097c-13.41347,0.30969 -23.81383,-7.35943 -23.22992,-17.12948z" fill="url(#color-5)" stroke-width="0"/><path d="M306.76039,-3.933c-0.19614,-0.04289 -0.13759,-0.18663 -0.13759,-0.18663l0.08033,-0.18296c0.35068,-0.25298 0.24446,-1.25585 0.0669,-1.7799c-0.15117,0.22064 -0.32578,0.45243 -0.5365,0.70041c-0.08756,0.12237 -0.20515,0.2336 -0.33332,0.33492l-0.06593,0.05141c0,0 -0.14012,0.1093 -0.28942,0.00666c-0.1493,-0.10264 -0.0091,-0.212 -0.0091,-0.212l0.06585,-0.05141c0.10786,-0.08285 0.20549,-0.17541 0.27582,-0.27756c1.08473,-1.27792 1.50992,-2.35182 2.39498,-3.55368c0,0 0.1082,-0.12736 0.28205,-0.04811c0.17387,0.07918 0.06568,0.20654 0.06568,0.20654c-0.82977,0.90383 -1.08587,1.61469 -1.60271,2.46039c0.01801,0.01745 0.02662,0.03186 0.02662,0.03186c0.27018,0.46442 0.5026,1.87391 0.014,2.28002l-0.04291,0.11925c0,0 -0.05855,0.14373 -0.25479,0.10078z" fill="#960000" stroke-width="0.5"/><path d="M306.2003,5.39951c-0.01032,0.04416 -0.0493,0.12052 -0.19442,0.12387c-0.20466,0.00474 -0.21113,-0.14517 -0.21113,-0.14517l0.08362,-0.17667c0.642,-0.33515 0.85902,-0.86574 1.38357,-1.28932c-0.37066,0.02333 -0.8238,-0.04834 -1.19013,0.05501l-0.13243,0.0108c0,0 -0.20466,0.00467 -0.21113,-0.14517c-0.00647,-0.14991 0.19819,-0.15466 0.19819,-0.15466l0.00368,0.00762c0.32938,-0.08602 1.5748,-0.00318 1.56324,-0.18519c0.46821,-1.15098 0.43218,-3.00652 1.77445,-2.34492c-0.4429,0.24692 -1.19439,1.9709 -1.37783,2.41967c-0.07116,0.15651 -0.19155,0.24296 -0.34216,0.28968c0.01024,0.00522 0.02064,0.01139 0.03103,0.01854c0.1493,0.10264 0.00917,0.212 0.00917,0.212c-0.54724,0.4246 -0.76131,0.94277 -1.38774,1.3039zM309.53457,1.30895c0.30162,0.19323 0.44962,0.3123 0.47311,0.62861c0,0 0.00647,0.14991 -0.19819,0.15458c-0.20466,0.00474 -0.21114,-0.14512 -0.21114,-0.14512c0.00107,-0.30048 -0.02212,-0.50726 -0.0638,-0.63815zM309.51123,1.29404c-0.08583,-0.05471 -0.16691,-0.1006 -0.2434,-0.13832c0.11465,-0.06394 0.20868,-0.02879 0.26674,0.15326c-0.00769,-0.00492 -0.01548,-0.0099 -0.02334,-0.01494z" fill="#960000" stroke-width="0.5"/><path d="M299.68975,12.18063c0.04341,-0.14661 0.24348,-0.11481 0.24348,-0.11481l0.34364,0.0649c0.30466,0.34613 1.53598,0.06089 1.99444,-0.06574c0,0 0.19206,-0.05189 0.2629,0.08884c0.07084,0.14068 -0.12129,0.19257 -0.12129,0.19257c-0.56607,0.14835 -1.9245,0.44835 -2.36125,0.03485l-0.20515,-0.02226c0,0 -0.20007,-0.03179 -0.15675,-0.17834z" fill="#960000" stroke-width="0.5"/><path d="M289.31365,13.88978c-0.05594,-0.01565 -0.11818,-0.05146 -0.1217,-0.13299c-0.00638,-0.14991 0.19819,-0.15465 0.19819,-0.15465l0.26665,0.09646c0.47182,0.96893 -0.50932,1.688 -1.03198,2.49016c0.23503,0.09736 0.42005,0.16406 0.47197,0.17241c0,0 0.19615,0.04296 0.13759,0.18663c-0.05865,0.14373 -0.25479,0.10078 -0.25479,0.10078c-0.6483,-0.16239 -1.90345,-0.71073 -2.08845,-1.19442c-0.20622,-0.53906 0.9165,-0.38362 0.32276,-0.96964l-0.08574,-0.11397c0,0 -0.09729,-0.13198 0.08279,-0.20317c0.18018,-0.07127 0.27747,0.06064 0.27747,0.06064l0.05889,0.08237c0.54191,0.57289 0.07264,0.65704 -0.30286,0.97636c-0.16994,0.14446 0.45551,0.48841 1.02757,0.74871c0.45362,-0.66317 1.37038,-1.35129 1.04164,-2.14565z" fill="#960000" stroke-width="0.5"/><path d="M275.86293,12.5113c0.1493,0.10264 0.00917,0.21194 0.00917,0.21194l-0.12998,0.10137c-0.8654,0.69191 -1.27939,1.39501 -1.78805,2.21553c0.4524,-0.29844 1.43803,-0.51757 1.90336,-1.0421c0.29271,-0.09886 0.49409,-0.191 0.75083,-0.32508l0.15553,-0.06287c0,0 0.18017,-0.07127 0.27747,0.06071c0.0973,0.13198 -0.08288,0.20317 -0.08288,0.20317l-0.11236,0.04319c-0.24381,0.12729 -0.44086,0.22405 -0.7207,0.30768c-0.44782,0.55567 -1.35833,0.66317 -2.13218,0.84013c-0.09697,0.02219 0.18033,0.06989 0.261,0.11506c0.43609,0.24403 0.82232,0.97792 1.19536,1.11451c0,0 0.17388,0.07918 0.06576,0.20654c-0.10819,0.12736 -0.28205,0.04811 -0.28205,0.04811c-1.20339,-0.609 -1.57159,-0.97396 -1.50822,-1.24223c-0.0411,0.0123 -0.09369,0.01458 -0.15855,-0.00733c-0.1859,-0.0628 -0.10016,-0.19898 -0.10016,-0.19898c0.58688,-0.92777 1.01552,-1.709 1.97354,-2.4784l0.13374,-0.10432c0,0 0.14013,-0.1093 0.28935,-0.00667z" fill="#960000" stroke-width="0.5"/><path d="M270.22908,9.2691c0.12146,0.12075 -0.04349,0.20972 -0.04349,0.20972l-0.2226,0.11986c-0.3755,0.24397 -0.7021,0.51872 -1.02141,0.7943c0.36248,-0.13791 0.72593,-0.24697 1.02027,-0.32663l-0.01253,-0.01331c0,0 0.14012,-0.10936 0.28935,-0.00672c0.1493,0.10264 0.00917,0.212 0.00917,0.212l-0.14438,0.0895c-0.72087,0.1943 -2.46918,0.73467 -2.38803,1.40977c0,0 0.00647,0.14991 -0.19819,0.15465c-0.20466,0.00467 -0.21104,-0.14517 -0.21104,-0.14517c0.00041,-0.13743 0.04307,-0.26743 0.11842,-0.38993c-0.00769,-0.00522 -0.0154,-0.01104 -0.02302,-0.01758c-0.13284,-0.1141 0.02293,-0.21139 0.02293,-0.21139c0.82429,-0.51128 1.43933,-1.23348 2.28075,-1.7826l0.23759,-0.12831c0,0 0.16485,-0.0889 0.28623,0.03186z" fill="#960000" stroke-width="0.5"/><path d="M265.86267,5.11366c0.00638,0.14991 -0.19819,0.15458 -0.19819,0.15458l-0.06807,0.00162c-0.48418,0.00251 -0.99759,0.12376 -1.5164,0.17271c-0.04005,0.19267 -0.10384,0.39916 -0.33855,0.50294c0,0 -0.18018,0.07127 -0.27747,-0.06064c-0.0973,-0.13198 0.08289,-0.20324 0.08289,-0.20324c0.14151,-0.04505 0.20057,-0.12465 0.22652,-0.21998c-0.0027,0.00006 -0.0054,0.00012 -0.0082,0.00018c0,0 -0.20458,0.00474 -0.21104,-0.14517c-0.00647,-0.14991 0.19819,-0.15465 0.19819,-0.15465c0.01597,-0.00036 0.03193,-0.00078 0.04782,-0.00132c0.01056,-0.14433 0.04636,-0.28453 0.22489,-0.37583c0.25757,-0.13173 1.0102,-0.17103 1.32812,-0.24806l0.25199,-0.1003c0,0 0.18008,-0.07126 0.27738,0.06065c0.0973,0.13198 -0.08279,0.20324 -0.08279,0.20324l-0.28395,0.11169c-0.3442,0.08446 -0.95696,0.1087 -1.24099,0.21044c-0.05519,0.01973 -0.09099,0.05993 -0.11662,0.1132c0.4872,-0.04913 0.94943,-0.14872 1.42526,-0.16569l0.06807,-0.00155c0,0 0.20466,-0.00474 0.21104,0.14517z" fill="#960000" stroke-width="0.5"/><path d="M265.82482,8.5051c0.00647,0.14991 -0.19819,0.15465 -0.19819,0.15465l0.05733,-0.04679c-0.21006,0.16815 -0.36829,0.3093 -0.45493,0.53041c0,0 -0.05855,0.14367 -0.25479,0.10078c-0.19614,-0.04296 -0.13759,-0.18663 -0.13759,-0.18663c0.11097,-0.26383 0.29261,-0.44367 0.54478,-0.64673l0.23226,-0.05087c0,0 0.20466,-0.00467 0.21113,0.14517z" fill="#960000" stroke-width="0.5"/><path d="M265.90098,0.10406c0.00638,0.14991 -0.19819,0.15465 -0.19819,0.15465l-0.34987,0.00804c-1.15049,0.02658 -1.56259,0.23586 -2.5397,0.49975c0,0 -0.1207,0.03264 -0.20605,-0.02399c-0.12227,0.12982 -0.18812,0.24625 -0.16551,0.33905c0,0 0.00647,0.14992 -0.19819,0.15466c-0.20466,0.00474 -0.21104,-0.14517 -0.21104,-0.14517c0.03465,-0.70834 1.74997,-1.44061 2.30326,-1.98481l0.06544,-0.16904c0,0 0.05865,-0.14373 0.25479,-0.10078c0.19622,0.04289 0.13759,0.18663 0.13759,0.18663l-0.09287,0.21925c-0.25438,0.24073 -1.09356,0.71242 -1.67535,1.14408c0.77582,-0.22232 1.28864,-0.39569 2.31482,-0.41938l0.34978,-0.00809c0,0 0.20466,-0.00467 0.21104,0.14517z" fill="#960000" stroke-width="0.5"/><path d="M268.24733,-8.42778c0.00647,0.14991 -0.19819,0.15465 -0.19819,0.15465l-0.15249,-0.0042c-0.23275,-0.05298 -0.4202,-0.04955 -0.64411,-0.04258c0.23202,0.23965 0.62873,0.45237 0.96892,0.68428l0.18042,0.12405c0,0 0.14923,0.10264 0.0091,0.212c-0.14012,0.1093 -0.28943,0.00667 -0.28943,0.00667l-0.18042,-0.12405c-0.92061,-0.63791 -1.91582,-1.21505 -0.70668,-2.1835c0,0 0.1402,-0.1093 0.28942,-0.00667c0.1493,0.10264 0.00917,0.21194 0.00917,0.21194c-0.4085,0.3081 -0.52143,0.55957 -0.46344,0.7805c0.00131,-0.00006 0.00204,-0.00012 0.00204,-0.00012c0.34873,-0.00804 0.60661,-0.02105 0.94222,0.05009l0.02244,-0.00822c0,0 0.20458,-0.00474 0.21104,0.14517z" fill="#960000" stroke-width="0.5"/><path d="M305.39721,8.02599c-0.00647,-0.14991 0.19819,-0.15458 0.19819,-0.15458l0.17485,-0.00408c0.3153,-0.00462 0.68458,-0.06082 0.97948,-0.14314c0,0 0.19206,-0.05188 0.2629,0.08884c0.07084,0.14068 -0.12121,0.19257 -0.12121,0.19257c-0.34593,0.091 -0.741,0.15062 -1.10822,0.16155l-0.17493,0.00401c0,0 -0.20466,0.00474 -0.21104,-0.14517z" fill="#960000" stroke-width="0.5"/><path d="M280.87844,-14.73213c-0.19213,0.05183 -0.26297,-0.08884 -0.26297,-0.08884l-0.10459,-0.21337c-0.03193,-0.57791 0.41759,-1.26508 -0.04291,-1.73503c0,0 -0.11883,-0.12214 0.04782,-0.20918c0.16665,-0.0871 0.28558,0.03497 0.28558,0.03497c0.85337,0.88278 0.08632,0.9297 0.11146,1.85189l0.0869,0.16695c0,0 0.07077,0.14073 -0.12129,0.19262z" fill="#960000" stroke-width="0.5"/><path d="M282.4977,-14.85121c-0.16665,0.08704 -0.28558,-0.03502 -0.28558,-0.03502l-0.18313,-0.18813c-0.23824,-0.24643 -0.37959,-0.38273 -0.80808,-0.36335c0,0 -0.20466,0.00474 -0.21104,-0.14517c-0.00647,-0.14991 0.19819,-0.15465 0.19819,-0.15465c0.57909,-0.00426 0.82797,0.15597 1.15433,0.48902l0.18313,0.18813c0,0 0.1189,0.12207 -0.04775,0.20918z" fill="#960000" stroke-width="0.5"/></g><path d="M308.20215,0.41934c0,12.51235 -10.03601,22.65561 -22.41607,22.65561c-12.38005,0 -22.41607,-10.14326 -22.41607,-22.65561c0,-12.51235 10.03601,-22.65561 22.41607,-22.65561c12.38005,0 22.41607,10.14326 22.41607,22.65561z" fill="#000000" stroke="none" stroke-width="1" stroke-linecap="butt"/><g stroke="none" stroke-linecap="butt"><path d="M340.52385,18.09752c-13.41345,-0.27074 -24.76058,-7.41406 -25.34449,-15.95507c-0.58391,-8.541 9.81646,-15.24539 23.22992,-14.97465c13.41345,0.27073 24.76058,7.41406 25.34449,15.95507c0.58391,8.54101 -9.81646,15.24539 -23.22992,14.97466z" fill="url(#color-6)" stroke-width="0"/><path d="M319.0682,-0.61428c-0.19624,0.03754 -0.25479,-0.0881 -0.25479,-0.0881l-0.04291,-0.10425c-0.48861,-0.35503 -0.25618,-1.5872 0.014,-1.9932c0,0 0.00861,-0.01259 0.02662,-0.02785c-0.51684,-0.73932 -0.77294,-1.36075 -1.60271,-2.15089c0,0 -0.10819,-0.11134 0.06568,-0.18056c0.17385,-0.06928 0.28205,0.04206 0.28205,0.04206c0.88506,1.05067 1.31025,1.98948 2.39498,3.10664c0.07033,0.08931 0.16797,0.17022 0.27582,0.24265l0.06585,0.04494c0,0 0.1402,0.0956 -0.0091,0.18533c-0.1493,0.08973 -0.28942,-0.00582 -0.28942,-0.00582l-0.06593,-0.04494c-0.12818,-0.08857 -0.24577,-0.18581 -0.33332,-0.29279c-0.21072,-0.21679 -0.38533,-0.41942 -0.5365,-0.61231c-0.17755,0.45812 -0.28377,1.33484 0.0669,1.55599l0.08033,0.15995c0,0 0.05855,0.12566 -0.13759,0.16315z" fill="#960000" stroke-width="0.5"/><path d="M319.62827,7.54422c-0.62642,-0.31571 -0.8405,-0.76869 -1.38774,-1.13988c0,0 -0.14012,-0.0956 0.00917,-0.18533c0.01039,-0.00624 0.02079,-0.01164 0.03103,-0.01621c-0.15061,-0.04085 -0.271,-0.11642 -0.34216,-0.25324c-0.18344,-0.39232 -0.93493,-1.89943 -1.37783,-2.11528c1.34228,-0.57838 1.30624,1.04375 1.77445,2.04994c-0.01155,0.15911 1.23386,0.08669 1.56324,0.16189l0.00368,-0.00666c0,0 0.20466,0.00415 0.19819,0.1352c-0.00647,0.13099 -0.21113,0.12691 -0.21113,0.12691l-0.13243,-0.00944c-0.36632,-0.09035 -0.81947,-0.02769 -1.19013,-0.04809c0.52455,0.3703 0.74157,0.83414 1.38357,1.12713l0.08362,0.15444c0,0 -0.00647,0.13105 -0.21113,0.12691c-0.14512,-0.00293 -0.1841,-0.06969 -0.19442,-0.10829zM316.29401,3.96818c-0.04168,0.11442 -0.06487,0.29519 -0.0638,0.55787c0,0 -0.00648,0.131 -0.21114,0.12686c-0.20466,-0.00409 -0.19819,-0.13513 -0.19819,-0.13513c0.02349,-0.27652 0.17149,-0.38062 0.47311,-0.54954zM316.294,3.96827c0.05806,-0.15915 0.15209,-0.18988 0.26674,-0.13398c-0.07649,0.03297 -0.15757,0.0731 -0.2434,0.12092c-0.00786,0.00441 -0.01565,0.00876 -0.02334,0.01306z" fill="#960000" stroke-width="0.5"/><path d="M326.1388,13.47231c0.04332,0.12811 -0.15675,0.15591 -0.15675,0.15591l-0.20515,0.01946c-0.43675,0.36148 -1.79518,0.09922 -2.36125,-0.03047c0,0 -0.19213,-0.04536 -0.12129,-0.16834c0.07084,-0.12303 0.2629,-0.07766 0.2629,-0.07766c0.45846,0.1107 1.68979,0.36006 1.99444,0.05747l0.34364,-0.05674c0,0 0.20006,-0.0278 0.24348,0.10037z" fill="#960000" stroke-width="0.5"/><path d="M336.51491,14.96647c-0.32874,0.69444 0.58802,1.29599 1.04164,1.87574c0.57206,-0.22755 1.19751,-0.52824 1.02757,-0.65453c-0.3755,-0.27915 -0.84476,-0.35272 -0.30286,-0.85354l0.05889,-0.07201c0,0 0.0973,-0.11531 0.27747,-0.05301c0.18008,0.06224 0.08279,0.17762 0.08279,0.17762l-0.08574,0.09964c-0.59374,0.5123 0.52898,0.37642 0.32276,0.84767c-0.185,0.42284 -1.44015,0.90221 -2.08845,1.04417c0,0 -0.19614,0.03754 -0.25479,-0.0881c-0.05855,-0.1256 0.13759,-0.16315 0.13759,-0.16315c0.05191,-0.00729 0.23693,-0.0656 0.47197,-0.15072c-0.52266,-0.70125 -1.50379,-1.32986 -1.03198,-2.17691l0.26665,-0.08432c0,0 0.20457,0.00414 0.19819,0.1352c-0.00352,0.07128 -0.06576,0.10258 -0.1217,0.11626z" fill="#960000" stroke-width="0.5"/><path d="M349.96565,13.76137c0.14922,-0.08973 0.28935,0.00583 0.28935,0.00583l0.13374,0.09119c0.95802,0.67261 1.38666,1.35557 1.97354,2.16663c0,0 0.08574,0.11905 -0.10016,0.17395c-0.06485,0.01915 -0.11744,0.01716 -0.15855,0.0064c0.06337,0.23452 -0.30483,0.55357 -1.50822,1.08596c0,0 -0.17385,0.06928 -0.28205,-0.04205c-0.10812,-0.11134 0.06576,-0.18056 0.06576,-0.18056c0.37304,-0.11941 0.75927,-0.76098 1.19536,-0.97431c0.08067,-0.03949 0.35797,-0.08118 0.261,-0.10059c-0.77385,-0.15469 -1.68436,-0.24867 -2.13218,-0.73444c-0.27984,-0.07311 -0.47688,-0.1577 -0.7207,-0.26898l-0.11236,-0.03776c0,0 -0.18018,-0.06224 -0.08288,-0.17762c0.0973,-0.11538 0.27747,-0.05307 0.27747,-0.05307l0.15553,0.05496c0.25674,0.11722 0.45812,0.19776 0.75083,0.28418c0.46532,0.45855 1.45096,0.65012 1.90336,0.91101c-0.50866,-0.7173 -0.92265,-1.33195 -1.78805,-1.93682l-0.12998,-0.08862c0,0 -0.14012,-0.09555 0.00917,-0.18528z" fill="#960000" stroke-width="0.5"/><path d="M355.59947,10.92704c0.12138,-0.10556 0.28623,-0.02785 0.28623,-0.02785l0.23759,0.11217c0.84142,0.48005 1.45646,1.11139 2.28075,1.55836c0,0 0.15577,0.08505 0.02293,0.1848c-0.00762,0.00572 -0.01533,0.0108 -0.02302,0.01537c0.07534,0.10709 0.118,0.22073 0.11842,0.34088c0,0 -0.00638,0.13099 -0.21104,0.12691c-0.20466,-0.00414 -0.19819,-0.1352 -0.19819,-0.1352c0.08116,-0.59017 -1.66716,-1.06257 -2.38803,-1.23243l-0.14438,-0.07824c0,0 -0.14012,-0.0956 0.00917,-0.18533c0.14922,-0.08973 0.28935,0.00588 0.28935,0.00588l-0.01253,0.01164c0.29434,0.06964 0.65779,0.16498 1.02027,0.28555c-0.31931,-0.24091 -0.64591,-0.4811 -1.02141,-0.69438l-0.2226,-0.10478c0,0 -0.16495,-0.07777 -0.04349,-0.18334z" fill="#960000" stroke-width="0.5"/><path d="M359.96601,7.29432c0.00638,-0.13105 0.21104,-0.12691 0.21104,-0.12691l0.06807,0.00136c0.47583,0.01484 0.93805,0.1019 1.42526,0.14485c-0.02563,-0.04656 -0.06142,-0.0817 -0.11662,-0.09896c-0.28402,-0.08895 -0.89678,-0.11014 -1.24099,-0.18397l-0.28395,-0.09764c0,0 -0.18009,-0.0623 -0.08279,-0.17768c0.0973,-0.11531 0.27738,-0.05302 0.27738,-0.05302l0.25199,0.08769c0.31792,0.06733 1.07055,0.10169 1.32812,0.21685c0.17853,0.07982 0.21433,0.20237 0.22489,0.32855c0.01589,0.00047 0.03186,0.00084 0.04782,0.00115c0,0 0.20466,0.00414 0.19819,0.1352c-0.00645,0.13105 -0.21104,0.12691 -0.21104,0.12691c-0.00279,-0.00005 -0.0055,-0.00011 -0.0082,-0.00016c0.02594,0.08334 0.08501,0.15293 0.22652,0.19231c0,0 0.18018,0.0623 0.08289,0.17768c-0.0973,0.11531 -0.27747,0.05301 -0.27747,0.05301c-0.23472,-0.09072 -0.2985,-0.27124 -0.33855,-0.43967c-0.51881,-0.04279 -1.03222,-0.14878 -1.5164,-0.15098l-0.06807,-0.00142c0,0 -0.20457,-0.00409 -0.19819,-0.13514z" fill="#960000" stroke-width="0.5"/><path d="M360.21487,10.13224l0.23226,0.04447c0.25216,0.17751 0.43381,0.33473 0.54478,0.56537c0,0 0.05855,0.1256 -0.13759,0.16315c-0.19624,0.03749 -0.25479,-0.0881 -0.25479,-0.0881c-0.08664,-0.19329 -0.24486,-0.31669 -0.45493,-0.46369l0.05733,0.0409c0,0 -0.20466,-0.00414 -0.19819,-0.1352c0.00647,-0.13099 0.21113,-0.12691 0.21113,-0.12691z" fill="#960000" stroke-width="0.5"/><path d="M359.92764,2.91493c0.00638,-0.13099 0.21104,-0.12691 0.21104,-0.12691l0.34978,0.00707c1.02618,0.02071 1.539,0.17227 2.31482,0.36662c-0.58179,-0.37736 -1.42098,-0.78972 -1.67535,-1.00016l-0.09287,-0.19167c0,0 -0.05863,-0.12566 0.13759,-0.16315c0.19614,-0.03754 0.25479,0.0881 0.25479,0.0881l0.06544,0.14778c0.55329,0.47575 2.26861,1.1159 2.30326,1.73513c0,0 -0.00638,0.13105 -0.21104,0.12691c-0.20466,-0.00414 -0.19819,-0.1352 -0.19819,-0.1352c0.02261,-0.08113 -0.04325,-0.18291 -0.16551,-0.2964c-0.08534,0.04951 -0.20605,0.02097 -0.20605,0.02097c-0.97712,-0.23069 -1.38922,-0.41365 -2.5397,-0.43688l-0.34987,-0.00703c0,0 -0.20457,-0.00414 -0.19819,-0.1352z" fill="#960000" stroke-width="0.5"/><path d="M357.58121,-4.54365c0.00645,-0.13105 0.21104,-0.12691 0.21104,-0.12691l0.02244,0.00719c0.33561,-0.06219 0.5935,-0.05082 0.94222,-0.04379c0,0 0.00073,0.00006 0.00204,0.00011c0.05799,-0.19314 -0.05495,-0.41298 -0.46344,-0.68231c0,0 -0.14012,-0.09555 0.00917,-0.18528c0.14922,-0.08973 0.28942,0.00583 0.28942,0.00583c1.20913,0.84662 0.21393,1.35116 -0.70668,1.90882l-0.18042,0.10844c0,0 -0.1493,0.08973 -0.28943,-0.00583c-0.14012,-0.0956 0.0091,-0.18533 0.0091,-0.18533l0.18042,-0.10845c0.34019,-0.20273 0.73691,-0.3887 0.96892,-0.5982c-0.22391,-0.00609 -0.41137,-0.00908 -0.64411,0.03723l-0.15249,0.00368c0,0 -0.20466,-0.00414 -0.19819,-0.1352z" fill="#960000" stroke-width="0.5"/><path d="M320.43133,9.84031c-0.00638,0.13105 -0.21104,0.12691 -0.21104,0.12691l-0.17493,-0.00351c-0.36722,-0.00955 -0.76229,-0.06167 -1.10822,-0.14123c0,0 -0.19205,-0.04536 -0.12121,-0.16834c0.07084,-0.12303 0.2629,-0.07767 0.2629,-0.07767c0.2949,0.07196 0.66419,0.1211 0.97948,0.12513l0.17485,0.00357c0,0 0.20466,0.00408 0.19819,0.13513z" fill="#960000" stroke-width="0.5"/><path d="M344.95012,-10.05492c-0.19206,-0.04536 -0.12129,-0.16839 -0.12129,-0.16839l0.0869,-0.14595c0.02514,-0.80618 -0.74192,-0.8472 0.11146,-1.61893c0,0 0.11893,-0.10671 0.28558,-0.03057c0.16665,0.07609 0.04782,0.18286 0.04782,0.18286c-0.4605,0.41083 -0.01098,1.01155 -0.04291,1.51677l-0.10459,0.18653c0,0 -0.07084,0.12298 -0.26297,0.07766z" fill="#960000" stroke-width="0.5"/><path d="M343.33078,-10.15904c-0.16665,-0.07615 -0.04775,-0.18286 -0.04775,-0.18286l0.18313,-0.16446c0.32636,-0.29115 0.57524,-0.43123 1.15433,-0.4275c0,0 0.20466,0.00414 0.19819,0.1352c-0.00638,0.13105 -0.21104,0.12691 -0.21104,0.12691c-0.4285,-0.01694 -0.56984,0.10221 -0.80808,0.31764l-0.18313,0.16446c0,0 -0.11893,0.10671 -0.28558,0.03062z" fill="#960000" stroke-width="0.5"/></g><path d="M340.04247,-21.50712c12.38005,0 22.41607,10.14326 22.41607,22.65561c0,12.51235 -10.03601,22.65561 -22.41607,22.65561c-12.38005,0 -22.41607,-10.14326 -22.41607,-22.65561c0,-12.51235 10.03601,-22.65561 22.41607,-22.65561z" fill="#000000" stroke="none" stroke-width="1" stroke-linecap="butt"/><g fill="none" stroke-opacity="0.07451" stroke="#ffffff" stroke-width="0.5" stroke-linecap="round"><path d="M310.69865,1.50265c0,6.17707 -5.56081,12.42327 -8.28363,17.88501"/><path d="M308.40522,6.51896c0,4.91862 -4.708,10.20132 -7.30243,14.32577"/><path d="M308.64661,8.50463c-2.92696,4.05477 -4.99612,9.55755 -8.74014,12.99793l-0.03027,-0.11476c1.62172,-2.99588 4.03363,-5.64007 5.87978,-8.61104c1.82278,-2.93354 2.67875,-6.38218 4.70118,-9.18398"/><path d="M301.8495,15.63577c0.90528,-2.0118 3.95331,-3.59667 5.59007,-5.25001"/></g><g fill="none" stroke-opacity="0.07451" stroke="#ffffff" stroke-width="0.5" stroke-linecap="round"><path d="M323.4719,20.42016c-2.72282,-4.94971 -8.28363,-10.61034 -8.28363,-16.20833"/><path d="M324.78413,21.74065c-2.59443,-3.7378 -7.30243,-8.52525 -7.30243,-12.98277"/><path d="M315.42976,6.10602c2.02243,2.53913 2.8784,5.66448 4.70118,8.323c1.84615,2.69245 4.25806,5.08875 5.87978,7.80378l-0.03027,0.104c-3.74403,-3.11785 -5.81318,-8.10475 -8.74014,-11.77939"/><path d="M318.44735,12.26218c1.63676,1.49834 4.68479,2.93462 5.59007,4.75783"/></g><g stroke="#ffffff" stroke-width="0.5" stroke-linecap="butt"><path d="M343.61831,1.87598c0,1.42382 -1.15423,2.57805 -2.57805,2.57805c-1.42382,0 -2.57805,-1.15423 -2.57805,-2.57805c0,-1.42382 1.15423,-2.57805 2.57805,-2.57805c1.42382,0 2.57805,1.15423 2.57805,2.57805z" fill="none"/><path d="M342.18606,1.92807c0,0.60404 -0.48968,1.09372 -1.09372,1.09372c-0.60404,0 -1.09372,-0.48968 -1.09372,-1.09372c0,-0.60404 0.48968,-1.09372 1.09372,-1.09372c0.60404,0 1.09372,0.48968 1.09372,1.09372z" fill="none"/><path d="M341.36271,1.925c0,0.15101 -0.12242,0.27343 -0.27343,0.27343c-0.15101,0 -0.27343,-0.12242 -0.27343,-0.27343c0,-0.15101 0.12242,-0.27343 0.27343,-0.27343c0.15101,0 0.27343,0.12242 0.27343,0.27343z" fill="#ffffff"/></g><g stroke-width="2" stroke-linecap="butt"><path d="M419.34052,-42.24547c0,5.97192 -52.58727,16.46589 -104.92898,16.17844c-51.20895,-0.28123 -102.19712,-11.2248 -102.19712,-16.17843c0,-0.85687 0.78564,-12.32979 0.78564,-12.32979c0,0 10.48394,-4.85004 32.77032,-8.42338c16.96401,-2.71995 40.7664,-4.3768 71.98861,-4.48449c75.25134,-0.25954 100.79285,14.01086 100.79285,14.01086c0,0 0.78878,6.37826 0.78878,11.22682z" fill="#000000" stroke="#000000"/><path d="M417.75,-54.33334c0,6.07513 -45.81619,11 -102.33333,11c-56.51714,0 -102.33333,-4.92487 -102.33333,-11c0,-6.07513 45.81619,-11 102.33333,-11c56.51714,0 102.33333,4.92487 102.33333,11z" fill="#000000" stroke="#000000"/><g><path d="M243.74409,-58.19135l-8.70209,-67.12237c0,0 22.26997,-16.129 79.81174,-14.73747c61.22342,1.48057 77.58258,14.73747 77.58258,14.73747l-9.12545,66.4557z" fill="#000000" stroke="#000000"/><path d="M242.76239,-57.66752l-1.29449,-16.45778c0,0 26.90822,6.15733 73.38587,6.51148c40.89714,0.23422 70.67012,-6.4182 70.67012,-6.4182l-1.58487,16.58321c0,0 -31.86294,5.64485 -67.52734,5.57651c-50.68403,-0.09713 -73.64929,-5.79522 -73.64929,-5.79522z" fill="url(#color-7)" stroke="url(#color-8)"/></g></g><path d="M257.5774,2.93747c5.9881,15.9912 14.36473,15.00273 18.43581,11.09941c14.27467,18.00332 -7.11511,18.83835 -7.11511,18.83835" fill="url(#color-9)" stroke="url(#color-10)" stroke-width="2" stroke-linecap="round"/><path d="M359.26956,33.54189c0,0 -21.38977,-0.83503 -7.11511,-18.83835c4.07108,3.90332 12.44771,4.89178 18.43581,-11.09942" fill="url(#color-11)" stroke="url(#color-12)" stroke-width="2" stroke-linecap="round"/><g stroke="#ffffff" stroke-width="0.5" stroke-linecap="butt"><path d="M289.45164,-0.12402c0,1.42382 -1.15423,2.57805 -2.57805,2.57805c-1.42382,0 -2.57805,-1.15423 -2.57805,-2.57805c0,-1.42382 1.15423,-2.57805 2.57805,-2.57805c1.42382,0 2.57805,1.15423 2.57805,2.57805z" fill="none"/><path d="M288.01938,-0.07193c0,0.60404 -0.48968,1.09372 -1.09372,1.09372c-0.60404,0 -1.09372,-0.48968 -1.09372,-1.09372c0,-0.60404 0.48968,-1.09372 1.09372,-1.09372c0.60404,0 1.09372,0.48968 1.09372,1.09372z" fill="none"/><path d="M287.19604,-0.075c0,0.15101 -0.12242,0.27343 -0.27343,0.27343c-0.15101,0 -0.27343,-0.12242 -0.27343,-0.27343c0,-0.15101 0.12242,-0.27343 0.27343,-0.27343c0.15101,0 0.27343,0.12242 0.27343,0.27343z" fill="#ffffff"/></g><path d="M286.3935,-23.80644c13.31405,0 23.95724,11.53256 24.10723,22.65561c0.00932,0.69151 -48.21445,1.75045 -48.21445,0c0,-12.51235 10.79317,-22.65561 24.10723,-22.65561z" fill="#000000" stroke="none" stroke-width="1" stroke-linecap="butt"/><g stroke-width="2" stroke-linecap="round"><path d="M346.71667,-26.76276c-1.62368,1.58291 -4.45835,4.10236 -7.89846,6.9742c-0.29764,0.24848 -2.15889,2.63014 -2.70823,4.94292c-0.65863,2.77293 -0.10564,5.58171 -1.78002,6.31006c-3.93172,1.71029 -3.23847,-3.03347 -3.63353,-1.9755c-1.76189,4.7182 0.81226,13.42427 -3.65124,13.93081c-5.19821,0.58993 -1.93854,-12.29166 -4.07109,-10.83941c-3.97899,2.70965 -8.67015,5.41028 -11.47107,6.50816c-1.56534,0.61357 -6.65733,-8.75408 -6.65733,-8.75408c0,0 -12.50731,6.40323 -35.55759,9.39018c-6.9778,0.90422 -14.92176,1.49537 -23.77737,1.50104c-0.26082,0.00017 -24.77857,-27.30538 -2.04853,-51.00382c31.81165,-33.16695 72.27431,-6.94905 72.27431,-6.94905c0,0 4.42186,-10.43569 5.88236,-9.32815c9.84089,7.46263 25.09781,39.29262 25.09781,39.29262z" fill="url(#color-13)" stroke="url(#color-14)"/><path d="M262.01409,0.68303c-9.04582,0.75924 -17.78183,0.44144 -16.7511,0.09774c33.57429,-11.19549 63.40367,-42.16754 63.40367,-42.16754c0,0 -10.43884,29.45447 -28.03908,39.455c0,0 -5.7715,0.54113 -7.12677,2.6757c-1.92351,3.02955 0.56607,8.62973 -3.02831,8.4586c-3.73311,-0.17773 -1.01724,-5.52375 -2.96983,-8.12094c-0.86567,-1.15147 -4.48876,-0.48249 -5.4886,-0.39857z" fill="url(#color-15)" stroke="url(#color-16)"/></g><g><g><path d="M406.66314,424.11238c-9.8619,-0.00206 -5.55115,-10.43626 -5.98119,-22.49258c-0.19506,-5.46867 -7.43644,-15.05138 3.87112,-23.64639c1.80225,-17.28293 0.10488,-32.01467 11.86848,-39.98996c23.39961,-15.86407 49.88626,-7.42763 45.14125,26.83368c-0.54232,3.91569 4.62907,19.87188 0.76656,36.05964c-1.42891,5.98854 -4.44162,11.04567 -8.15185,17.25782c-2.27695,3.8123 -4.67167,9.90172 -7.55172,11.47453c4.63936,-11.89169 7.39933,-30.23896 5.65084,-21.87884c-1.25022,5.9777 -5.46537,25.12992 -10.85628,29.61237c-8.6033,7.1535 -20.22634,1.75549 -27.27996,1.14109c-5.14614,-0.44824 -6.97008,-6.5234 -4.23857,-13.05618c1.63188,-3.90288 6.29734,-6.94997 8.1811,-5.83274c4.98999,2.95939 6.01154,-6.44869 6.29766,-13.33154c0.14767,-3.55278 1.103,-6.21069 0.19799,-6.61419c-3.63707,-1.62155 0.87801,12.31761 -3.3841,18.45807c-1.01203,1.45807 -2.73064,0.71733 -5.22991,1.45786c-4.33718,1.28511 -4.73643,7.16201 -9.30143,4.54739z" fill="#000000" stroke="#000000" stroke-width="2" stroke-linecap="butt"/><path d="M408.0831,425.29656c0,0 2.50138,-16.29521 16.04662,-12.75972c0.51131,0.13345 -3.06876,11.5427 -2.49509,10.33653c0.67256,-1.41413 4.57586,-13.28272 4.24931,-15.53479" fill="none" stroke="#2e2e2e" stroke-width="1" stroke-linecap="round"/><path d="M446.63209,429.7127l6.5555,-23.59261" fill="none" stroke="#2e2e2e" stroke-width="1" stroke-linecap="round"/></g><g stroke="none" stroke-width="0"><path d="M405.11015,306.41354c0,0 -48.31099,-177.85157 -27.79657,-192.28511c15.51452,-10.91571 -9.31446,-9.62992 -2.36964,-24.39323c5.14226,-10.93142 59.63103,-36.53223 65.83274,-34.83198c10.33019,2.83211 22.19869,137.47723 22.74322,191.74816c0.64324,64.11174 -0.69013,117.63551 -0.69013,117.63551l-60.80132,3.20671c0,0 1.25754,-16.41712 0.54091,-36.86863c-0.73308,-20.92094 -14.94006,-59.4621 -3.20028,-76.04824" fill="#000000" stroke-linecap="round"/><path d="M463.41069,375.97035c0,0 -11.06889,-8.87063 -31.38825,-6.5023c-19.4772,2.27017 -30.28222,12.05227 -30.28222,12.05227l0.43799,-34.52863c0,0 9.39159,-8.15098 29.22647,-10.04727c22.17616,-1.89571 32.37739,6.41116 32.37739,6.41116z" fill="url(#color-17)" stroke-linecap="butt"/></g></g><g><g><path d="M225.35801,425.61391c-4.565,2.61462 -4.96425,-3.26228 -9.30143,-4.54739c-2.49927,-0.74053 -4.21788,0.00021 -5.22991,-1.45786c-4.26211,-6.14046 0.25297,-20.07962 -3.3841,-18.45807c-0.90501,0.4035 0.05032,3.06141 0.19799,6.61419c0.28612,6.88285 1.30767,16.29093 6.29766,13.33154c1.88376,-1.11723 6.54922,1.92986 8.1811,5.83274c2.73151,6.53278 0.90757,12.60794 -4.23857,13.05618c-7.05362,0.6144 -18.67666,6.01241 -27.27996,-1.14109c-5.39091,-4.48245 -9.60606,-23.63467 -10.85628,-29.61237c-1.74849,-8.36012 1.01148,9.98715 5.65084,21.87884c-2.88005,-1.57281 -5.27477,-7.66223 -7.55172,-11.47453c-3.71023,-6.21215 -6.72294,-11.26928 -8.15185,-17.25782c-3.86251,-16.18776 1.30888,-32.14395 0.76656,-36.05964c-4.74501,-34.26131 21.74164,-42.69775 45.14125,-26.83368c11.7636,7.97529 10.06623,22.70703 11.86848,39.98996c11.30756,8.59501 4.06618,18.17772 3.87112,23.64639c-0.43004,12.05632 3.88071,22.49052 -5.98119,22.49258z" fill="#000000" stroke="#000000" stroke-width="2" stroke-linecap="butt"/><path d="M206.1372,408.84008c-0.32655,2.25207 3.57675,14.12066 4.24931,15.53479c0.57367,1.20617 -3.0064,-10.20308 -2.49509,-10.33653c13.54524,-3.53549 16.04662,12.75972 16.04662,12.75972" fill="none" stroke="#2e2e2e" stroke-width="1" stroke-linecap="round"/><path d="M185.38905,431.2142l-6.5555,-23.59261" fill="none" stroke="#2e2e2e" stroke-width="1" stroke-linecap="round"/></g><g stroke="none" stroke-width="0"><path d="M232.65206,256.07823c11.73978,16.58614 -2.4672,55.1273 -3.20028,76.04824c-0.71663,20.45151 0.54091,36.86863 0.54091,36.86863l-60.80132,-3.20671c0,0 -1.33337,-53.52377 -0.69013,-117.63551c0.54453,-54.27093 12.41303,-188.91605 22.74322,-191.74816c6.20171,-1.70025 60.69048,23.90056 65.83274,34.83198c6.94482,14.76331 -17.88416,13.47752 -2.36964,24.39323c20.51442,14.43354 -27.79657,192.28511 -27.79657,192.28511" fill="#000000" stroke-linecap="round"/><path d="M168.23907,344.85708c0,0 10.20123,-8.30687 32.37739,-6.41116c19.83488,1.89629 29.22647,10.04727 29.22647,10.04727l0.43799,34.52863c0,0 -10.80502,-9.7821 -30.28222,-12.05227c-20.31936,-2.36833 -31.38825,6.5023 -31.38825,6.5023z" fill="url(#color-18)" stroke-linecap="butt"/></g></g><g stroke="#020202" stroke-width="3" stroke-linecap="round"><path d="M287.76259,265.49267c0,0 -5.03848,-16.30975 -23.36918,-8.07107c-16.78166,7.54246 -14.03988,84.47674 -20.02136,124.30946c-6.83066,45.48773 -10.01584,82.96696 -28.22355,87.67576c-20.6909,5.35099 -89.09411,7.70835 -104.85296,-9.09326c-5.56745,-5.93585 -3.57771,-21.01997 11.80354,-36.70381c18.53957,-18.90428 52.6857,-39.81192 65.88563,-61.50885c16.89004,-27.76243 -6.5233,-55.534 -6.5233,-55.534" fill="none"/><path d="M140.64423,261.02221l72.21009,49.18637l-29.49375,-2.63011l-3.46244,29.62372z" fill="#000000"/></g><path d="M316.58781,254.64531c-0.55744,-7.8288 -1.68079,-15.52509 -1.68079,-23.38225" fill="none" stroke-opacity="0.17647" stroke="#ffffff" stroke-width="0.5" stroke-linecap="round"/><g><g><path d="M361.19258,82.35697c0.03404,5.87262 -21.78467,13.14052 -46.08539,13.32583c-22.63824,0.17261 -47.87385,-6.29693 -47.911,-12.70093c-0.0212,-3.66071 1.61681,-7.23351 5.22556,-10.07305c7.95931,-6.26276 24.35526,-9.67447 42.31001,-9.67447c14.21515,0 26.90689,1.69236 35.3483,5.58534c7.05485,3.25357 11.08158,8.19493 11.11253,13.53726z" fill-opacity="0.25098" fill="#000000" stroke="none" stroke-width="0" stroke-linecap="butt"/><path d="M314.18243,253.15275c0,0 0.35194,9.84084 1.27959,25.78266c2.95644,50.80807 0.6385,149.21373 0.72262,157.82692c0.05312,5.43615 -4.05753,18.95317 -4.59367,19.21376c-28.38674,13.79785 -72.40036,-35.05779 -72.40036,-35.05779c0,0 -10.19034,-77.28948 -11.03173,-80.96293c-5.46484,-23.85972 2.19774,-56.04493 9.23893,-81.64066c9.84762,-35.79755 19.0229,-50.31681 19.0229,-50.31681l-0.24291,1.22485c3.33997,-21.4822 24.28705,-28.41288 24.28705,-28.41288c0,0 -1.23113,-0.58942 -2.62585,-3.56912c-0.68376,-1.46079 -0.51722,-5.30691 -1.12016,-6.99212c-0.4923,-1.37598 -2.38647,-2.53357 -3.17178,-4.20501c-5.78292,-12.30836 -14.68962,-29.48614 -29.22705,-45.3261c-24.04243,-26.19658 -62.61769,-47.68164 -50.33719,-60.48588c3.40141,-3.54648 30.72756,3.46854 60.68802,3.86157c37.63491,0.49371 80.87136,-3.83821 102.41996,-1.34151c7.33572,0.84996 74.6151,-6.04394 79.25904,-4.64213c20.40537,6.15951 -53.41034,40.1283 -66.54629,68.87544c-6.43891,14.09112 -10.41659,28.57095 -12.72815,38.71585c-0.39686,1.74172 -2.41128,5.35273 -2.71394,6.81749c-0.34073,1.64897 0.83404,2.29591 0.7834,3.33416c-0.13424,2.75264 -0.84313,4.23646 -0.84313,4.23646c0,0 16.38814,1.27455 20.36188,26.68398l0.23487,1.22487c0,0 11.449,12.35265 21.86411,55.63729c6.9917,29.05699 9.89056,67.29127 7.92724,76.32022c-1.109,5.10002 -5.60955,61.84991 -13.34828,102.7376c-7.1375,15.66826 -23.58109,19.50003 -39.95078,18.09967c-16.88086,-1.44411 -34.03809,0.15251 -34.07195,-18.40599c-0.07924,-43.44907 -1.12181,-84.14517 -0.83875,-119.97687c0.10481,-13.27054 -0.54885,-27.41684 0.19937,-43.47437c0.74284,-15.94184 1.31406,-25.78263 1.31406,-25.78263" fill="#000000" stroke="#000000" stroke-width="2" stroke-linecap="round"/><g fill="#000000"><g><g stroke="#000000" stroke-width="2" stroke-linecap="round"><path d="M313.25856,161.10647c0,0 -46.46498,15.774 -62.12888,-11.02498c-11.88487,-20.33353 0.84036,-44.58662 10.18994,-55.31017c14.43913,-16.56102 41.77013,-16.43272 41.77013,-16.43272"/><path d="M326.53656,78.3386c0,0 30.10947,0.03178 44.74056,16.5928c9.47388,10.72355 19.69147,34.78764 8.04225,55.12112c-15.35326,26.79897 -61.99226,11.05393 -61.99226,11.05393"/></g><path d="M368.60028,147.54118c-9.23004,21.2899 -35.34315,17.2773 -53.60141,17.2773c-18.25826,0 -33.69525,1.6019 -46.00734,-8.03593c-4.20292,-3.29002 -20.09803,-44.08162 -2.2287,-63.42238c7.00338,-7.58005 14.09924,-14.4719 20.733,-17.78444c15.08865,-7.53447 27.74111,-4.37595 31.15343,-4.37595c4.53466,0 17.9841,2.82509 29.90918,9.68108c7.65435,4.40065 14.68711,11.56439 18.31014,17.06896c13.45922,20.44917 3.63097,45.21077 1.73177,49.59145z" stroke="none" stroke-width="0" stroke-linecap="butt"/></g></g><path d="M234.3823,385.81292l-3.83396,-26.38294l85.33125,-0.35652l0.21281,36.72218z" fill="#000000" stroke="#000000" stroke-width="2" stroke-linecap="butt"/><path d="M315.76115,396.15216l-0.21281,-36.72218l87.66874,0.35652l-3.62879,26.38293z" fill="#000000" stroke="#000000" stroke-width="2" stroke-linecap="butt"/><path d="M238.26627,435.07094c0,0 -11.79353,-54.28545 -8.31151,-54.13384c29.88247,1.30096 86.34682,14.70302 86.34682,14.70302l0.28884,62.82204l-100.34026,22.05454z" fill="#000000" stroke="#000000" stroke-width="2" stroke-linecap="butt"/><path d="M417.35013,480.51667l-100.59589,-22.05453l-0.43935,-62.82204c0,0 56.30902,-13.40207 86.1764,-14.70302c3.48028,-0.15157 -7.68403,54.13385 -7.68403,54.13385z" fill="#000000" stroke="#000000" stroke-width="2" stroke-linecap="butt"/><path d="M329.85049,153.32738c0.01304,2.24339 -1.42081,4.06202 -3.20254,4.06202c-1.78172,0 -3.23662,-1.81863 -3.24967,-4.06202c-0.01304,-2.24339 1.42083,-4.062 3.20256,-4.062c1.78172,0 3.23661,1.81861 3.24966,4.062z" fill="none" stroke="#171717" stroke-width="1" stroke-linecap="butt"/><path d="M330.6622,128.49813c0.01304,2.24339 -1.42081,4.06199 -3.20253,4.06199c-1.78172,0 -3.23663,-1.8186 -3.24967,-4.06199c-0.01304,-2.24339 1.42083,-4.06201 3.20256,-4.06201c1.78172,0 3.2366,1.81863 3.24965,4.06202z" fill="none" stroke="#171717" stroke-width="1" stroke-linecap="butt"/><path d="M315.21044,57.13205l1.43081,160.60491" fill="none" stroke="#171717" stroke-width="1" stroke-linecap="round"/><path d="M311.47049,61.68033c13.85931,-0.40603 36.08385,-2.3753 45.53897,0.68734c-12.09042,31.4176 -41.26762,56.49664 -41.26762,56.49664c-14.90689,-10.645 -36.47914,-37.35334 -42.4927,-55.23589c15.7841,-3.82887 38.22135,-1.94809 38.22135,-1.94809z" fill="url(#color-19)" stroke="none" stroke-width="0" stroke-linecap="butt"/><g><g><g fill="#000000"><path d="M256.90003,204.42724c28.69347,-32.40304 27.0479,12.20799 61.07243,12.49843c41.10375,0.35085 56.42758,-12.49843 56.42758,-12.49843c0,0 13.15221,10.99086 22.55423,36.69272c7.55996,20.66631 12.00634,53.9363 10.47749,75.1496c-0.75307,10.449 -1.30111,22.91862 -3.89386,34.89126c-0.2418,1.11661 -18.60765,1.21563 -38.27119,0.99976c-22.82729,-0.25065 -47.40349,-0.92565 -47.40349,-0.92565c0,0 -0.9961,-26.88978 -1.3258,-51.91215c-0.28678,-21.76504 0.17409,-42.11716 -0.83952,-42.13119c-1.83016,-0.02523 0.92837,22.67644 1.51749,45.82426c0.61173,24.03697 -0.92004,48.55501 -1.56387,48.60599c-39.23247,3.105 -85.2049,0.07215 -85.2049,0.07215c0,0 -3.18688,-10.02784 -5.41041,-29.81702c0,0 -3.25302,-29.84049 4.59888,-62.54309c4.75991,-19.82458 16.43556,-42.67734 27.26493,-54.90674z" stroke="none" stroke-width="0" stroke-linecap="butt"/><path d="M354.57752,235.05208c0,0 -18.55616,20.30367 -36.35636,24.78859c-1.3034,0.30079 -3.10288,1.09069 -4.33212,0.2083c-20.47373,-9.07279 -34.54706,-22.49722 -34.54706,-22.49722" stroke="#171717" stroke-width="1" stroke-linecap="round"/></g><path d="M314.62595,260.66908c0.88695,6.10268 1.1819,24.28631 1.43388,39.55993c0.34106,20.67382 0.12533,39.68015 0.12533,39.68015" fill="none" stroke="#171717" stroke-width="1" stroke-linecap="round"/><path d="M316.1855,394.90233c0,0 -0.35185,-73.4995 -0.25041,-94.1733c0.07494,-15.27365 0.1591,-33.45727 0.97534,-39.55997" fill="none" stroke="#171717" stroke-width="1" stroke-linecap="round"/></g><path d="M360.29911,230.07918c0.02949,5.09075 -34.86237,29.34014 -44.2075,28.90262c-3.89519,-0.18237 -26.43661,-13.05141 -37.28357,-20.85331c-3.76393,-2.70732 -5.2401,-4.80441 -5.24444,-5.54963c-0.02949,-5.09075 20.93915,-8.90513 42.82343,-8.90513c21.88428,0 43.88264,1.31471 43.91213,6.40546z" fill="#000000" stroke="none" stroke-width="0" stroke-linecap="butt"/><path d="M310.95937,257.73196l-1.78069,-48.43142" fill="none" stroke="#171717" stroke-width="1" stroke-linecap="round"/><path d="M320.4684,259.29433l2.74831,-43.43209" fill="none" stroke="#171717" stroke-width="1" stroke-linecap="round"/><g><path d="M261.21359,193.83369c1.15505,2.57901 57.14694,18.44998 110.00724,1.24984c0.85844,-0.27933 3.81522,11.2486 3.81522,11.2486c0,0 -11.76839,12.79343 -58.93891,12.16981c-41.0797,-0.54309 -58.82195,-14.04455 -58.82195,-14.04455c0,0 3.7391,-11.06885 3.93844,-10.62369z" fill="#000000" stroke="#171717" stroke-width="1" stroke-linecap="round"/><path d="M305.60848,218.83061l-0.09596,-16.56047h20.5l0.09596,16.56047z" fill="none" stroke="url(#color-20)" stroke-width="3.5" stroke-linecap="butt"/></g></g><g stroke="none" stroke-width="0"><path d="M307.44329,77.37265l-16.1079,-11.63382l1.13822,-12.52634l22.15533,-7.11712l22.13545,7.82542l1.47784,12.16964l-13.46399,11.47782l-9.39612,-5.04742z" fill="url(#color-21)" stroke-linecap="round"/><path d="M298.26734,54.73351l15.98025,-5.41816l16.33371,5.61374l-15.82303,5.76559z" fill="#000000" stroke-linecap="butt"/></g><g><g stroke-linecap="round"><path d="M332.3791,68.31885c4.50215,-1.23 9.63023,0.58358 11.84233,5.63987c3.9426,9.01181 -0.86991,16.55717 -0.86991,16.55717c3.44594,7.86796 -4.72204,15.72192 -11.5313,13.10164c-4.88867,-1.88121 -8.75878,-7.32587 -13.18892,-15.49334c-0.83248,-2.63023 -1.48423,-8.0161 0.80712,-10.99148c1.66951,-2.16787 7.25262,-7.25994 12.94068,-8.81384z" fill="#000000" stroke="none" stroke-width="0"/><path d="M320.48377,81.87137l8.78479,-0.67501l-0.88008,6.58152l-8.15145,-3.20635" fill-opacity="0.54118" fill="#171717" stroke="#171717" stroke-width="0.5"/></g><g stroke-linecap="round"><path d="M310.69059,77.13268c2.32589,2.97537 1.73654,8.36127 0.93449,10.99147c-4.33548,8.16746 -8.14245,13.61215 -13.00931,15.49334c-6.77889,2.62029 -15.03792,-5.2337 -11.6832,-13.10164c0,0 -4.89998,-7.54535 -1.06181,-16.55714c2.15348,-5.05627 7.26054,-6.86978 11.77698,-5.63987c5.70612,1.55392 11.34823,6.64596 13.04286,8.81384z" fill="#000000" stroke="none" stroke-width="0"/><path d="M309.97812,84.57149l-8.11423,3.20636l-0.95636,-6.58152l8.79263,0.67501" fill-opacity="0.54118" fill="#171717" stroke="#171717" stroke-width="0.5"/></g><path d="M320.65424,82.9882c0.2186,3.97346 -1.02088,6.23529 -1.02088,6.23529c0,0 -2.04064,1.94632 -4.23692,1.94632c-2.37451,0 -4.30009,-1.50476 -4.30009,-1.50476c0,0 -1.02941,-2.68423 -1.05255,-6.67686c-0.02449,-4.22507 0.42806,-5.81749 0.42806,-5.81749c0,0 2.098,-2.36418 4.82973,-2.36418c1.97662,0 4.27694,1.88436 4.27694,1.88436c0,0 0.8576,2.33345 1.07565,6.29728z" fill="#000000" stroke="#171717" stroke-width="0.5" stroke-linecap="butt"/></g></g><g fill="none" stroke-opacity="0.04706" stroke="#ffffff" stroke-width="0.5" stroke-linecap="round"><path d="M280.70108,168.19793c12.50773,2.60316 32.58958,1.45478 32.58958,1.45478c0,0 -22.49939,1.33128 -34.53763,-1.63912"/><path d="M312.93164,169.83353c-1.662,0.67018 -5.36972,0.42079 -8.12595,0.47991c-8.0013,0.17164 -16.80799,0.23104 -28.05238,-2.39131"/><path d="M307.96588,173.54346c-3.87584,2.27068 -17.39237,0.77306 -27.7237,-1.84381l0.15891,0.12838c8.02149,1.38692 25.73283,3.59545 28.37494,1.46814"/><path d="M308.65781,173.46273c-2.77661,1.6266 -20.78343,0.44282 -28.54171,-1.65294"/><path d="M308.89865,174.73335c-8.96124,-1.20487 -14.26276,0.14369 -23.67158,-1.39789"/><path d="M305.93649,177.65685c-2.48753,2.56607 -15.6604,0.83826 -24.52354,-0.87715"/><path d="M307.28269,178.2636c-0.68691,0.96845 -3.01068,1.04417 -5.55901,0.99343c-5.16318,-0.10278 -12.43844,0.47812 -20.13889,-1.72907"/><path d="M307.16548,178.78659c-4.17559,1.00825 -16.07698,0.31201 -25.76107,-2.03398"/><path d="M308.07495,178.7568c-6.50846,0.95487 -15.24063,1.63397 -26.52342,-1.42628"/><path d="M306.12914,182.93114c-6.23475,0.58185 -15.45753,0.83045 -25.92134,-2.1528"/><path d="M306.24886,183.29917c-7.45581,-0.22066 -13.8487,0.73958 -24.61774,-2.38395"/></g><g fill="none" stroke-opacity="0.04706" stroke="#ffffff" stroke-width="0.5" stroke-linecap="round"><path d="M352.97335,168.7245c-12.03824,2.76452 -34.53762,1.04843 -34.53762,1.04843c0,0 20.08184,1.49184 32.58956,-0.8974"/><path d="M354.97307,168.66724c-11.24439,2.43004 -20.05107,2.22002 -28.05237,1.91154c-2.75624,-0.10626 -6.46397,0.07972 -8.12596,-0.61888"/><path d="M322.95035,173.49359c2.6421,2.1725 20.35346,0.26688 28.37494,-0.98285l0.15891,-0.12566c-10.33135,2.44019 -23.84787,3.70663 -27.72371,1.36967"/><path d="M351.61028,172.49738c-7.75828,1.96307 -25.76511,2.83889 -28.54172,1.1648"/><path d="M346.49931,173.93564c-9.40882,1.38066 -14.71033,-0.05857 -23.67158,0.99304"/><path d="M350.84959,177.3495c-8.85817,1.59652 -22.52151,3.2151 -25.05972,0.55335"/><path d="M351.66992,177.7426c-8.26017,2.61948 -16.16359,1.81705 -21.66722,1.83248c-2.54832,0.00716 -4.8721,-0.10832 -5.559,-1.08851"/><path d="M351.63188,177.10938c-9.89262,2.44096 -22.705,3.03108 -27.07098,1.90219"/><path d="M351.6521,177.60081c-12.00108,3.33121 -21.21091,2.47769 -28.00066,1.36542"/><path d="M354.81582,180.48385c-11.81382,3.86614 -22.33654,3.44995 -29.21859,2.69"/><path d="M350.09525,181.57691c-10.76904,2.93934 -17.16193,1.86977 -24.61774,1.96292"/></g><path d="M262.63101,161.82746c0,0 -40.0966,-15.71758 -14.66667,-60.33333" fill="none" stroke="#171717" stroke-width="1" stroke-linecap="round"/><path d="M382.18425,100.82746c25.42993,44.61575 -14.66667,60.33333 -14.66667,60.33333" fill="none" stroke="#171717" stroke-width="1" stroke-linecap="round"/></g><path d="M339.6777,-21.88685c13.22777,0.19041 23.636,11.87399 23.62492,22.99803c-0.00069,0.69157 -47.9272,1.06073 -47.90201,-0.68954c0.18009,-12.51105 11.04931,-22.49891 24.27709,-22.30849z" fill="#000000" stroke="none" stroke-width="1" stroke-linecap="butt"/></g></g></svg>